<mxfile host="app.diagrams.net" agent="Mozilla/5.0 (X11; Ubuntu; Linux x86_64; rv:131.0) Gecko/20100101 Firefox/131.0" version="26.0.5">
  <diagram name="Page-1" id="inIqKO1QEl7RypfR3HQh">
    <mxGraphModel dx="756" dy="1591" grid="1" gridSize="10" guides="1" tooltips="1" connect="1" arrows="1" fold="1" page="1" pageScale="1" pageWidth="850" pageHeight="1100" math="0" shadow="0">
      <root>
        <mxCell id="0" />
        <mxCell id="1" parent="0" />
        <mxCell id="lClvxiTIddJS243z8lhU-6" value="" style="rounded=0;whiteSpace=wrap;html=1;rotation=90;" vertex="1" parent="1">
          <mxGeometry x="520" y="-340" width="1070" height="780" as="geometry" />
        </mxCell>
        <mxCell id="lClvxiTIddJS243z8lhU-3" value="Supply and Ground " style="text;html=1;align=center;verticalAlign=middle;whiteSpace=wrap;rounded=0;fontSize=28;" vertex="1" parent="1">
          <mxGeometry x="940" y="-480" width="260" height="160" as="geometry" />
        </mxCell>
        <mxCell id="lClvxiTIddJS243z8lhU-4" value="iforcedbat" style="text;html=1;align=center;verticalAlign=middle;whiteSpace=wrap;rounded=0;fontSize=28;" vertex="1" parent="1">
          <mxGeometry x="1220" width="220" height="160" as="geometry" />
        </mxCell>
        <mxCell id="lClvxiTIddJS243z8lhU-5" value="Signals (analog and digital)" style="text;html=1;align=center;verticalAlign=middle;whiteSpace=wrap;rounded=0;fontSize=28;" vertex="1" parent="1">
          <mxGeometry x="690" width="220" height="160" as="geometry" />
        </mxCell>
        <mxCell id="lClvxiTIddJS243z8lhU-7" value="vin and pgnd" style="text;html=1;align=center;verticalAlign=middle;whiteSpace=wrap;rounded=0;fontSize=28;" vertex="1" parent="1">
          <mxGeometry x="945" y="420" width="220" height="160" as="geometry" />
        </mxCell>
        <mxCell id="lClvxiTIddJS243z8lhU-8" value="" style="rounded=0;whiteSpace=wrap;html=1;fillColor=#00FF00;" vertex="1" parent="1">
          <mxGeometry x="665" y="-320" width="10" height="710" as="geometry" />
        </mxCell>
        <mxCell id="lClvxiTIddJS243z8lhU-11" value="" style="rounded=0;whiteSpace=wrap;html=1;fillColor=#00FF00;" vertex="1" parent="1">
          <mxGeometry x="1435" y="-25" width="10" height="150" as="geometry" />
        </mxCell>
        <mxCell id="lClvxiTIddJS243z8lhU-12" value="" style="rounded=0;whiteSpace=wrap;html=1;fillColor=#FF0000;rotation=90;" vertex="1" parent="1">
          <mxGeometry x="1052.5" y="-627.5" width="10" height="295" as="geometry" />
        </mxCell>
        <mxCell id="lClvxiTIddJS243z8lhU-14" value="&lt;div&gt;POWER&lt;/div&gt;&lt;div&gt;BLOCK&lt;br&gt;&lt;/div&gt;" style="text;html=1;align=center;verticalAlign=middle;whiteSpace=wrap;rounded=0;fontSize=51;strokeColor=default;" vertex="1" parent="1">
          <mxGeometry x="940" y="-30" width="220" height="160" as="geometry" />
        </mxCell>
        <mxCell id="lClvxiTIddJS243z8lhU-15" value="" style="rounded=0;whiteSpace=wrap;html=1;fillColor=#FF0000;rotation=90;" vertex="1" parent="1">
          <mxGeometry x="1070" y="432" width="10" height="295" as="geometry" />
        </mxCell>
        <mxCell id="lClvxiTIddJS243z8lhU-16" value="" style="rounded=0;whiteSpace=wrap;html=1;" vertex="1" parent="1">
          <mxGeometry x="160" y="410" width="330" height="160" as="geometry" />
        </mxCell>
        <mxCell id="lClvxiTIddJS243z8lhU-17" value="BG" style="text;html=1;align=center;verticalAlign=middle;whiteSpace=wrap;rounded=0;fontSize=51;strokeColor=default;" vertex="1" parent="1">
          <mxGeometry x="260" y="440" width="120" height="80" as="geometry" />
        </mxCell>
        <mxCell id="lClvxiTIddJS243z8lhU-18" value="" style="rounded=0;whiteSpace=wrap;html=1;fillColor=#FF0000;rotation=90;" vertex="1" parent="1">
          <mxGeometry x="201" y="381.5" width="10" height="67" as="geometry" />
        </mxCell>
        <mxCell id="lClvxiTIddJS243z8lhU-19" value="" style="rounded=0;whiteSpace=wrap;html=1;fillColor=#FF0000;rotation=90;" vertex="1" parent="1">
          <mxGeometry x="201" y="531" width="10" height="67" as="geometry" />
        </mxCell>
        <mxCell id="lClvxiTIddJS243z8lhU-20" value="" style="rounded=0;whiteSpace=wrap;html=1;fillColor=#00FF00;rotation=90;" vertex="1" parent="1">
          <mxGeometry x="415" y="355" width="10" height="120" as="geometry" />
        </mxCell>
        <mxCell id="lClvxiTIddJS243z8lhU-21" value="" style="rounded=0;whiteSpace=wrap;html=1;fillColor=#00FF00;rotation=0;" vertex="1" parent="1">
          <mxGeometry x="480" y="530" width="10" height="30" as="geometry" />
        </mxCell>
        <mxCell id="lClvxiTIddJS243z8lhU-22" value="Vdd/Gnd (analog and digital)" style="text;html=1;align=center;verticalAlign=middle;whiteSpace=wrap;rounded=0;fontSize=20;" vertex="1" parent="1">
          <mxGeometry x="166" y="450" width="80" height="97.5" as="geometry" />
        </mxCell>
        <mxCell id="lClvxiTIddJS243z8lhU-23" value="Signals" style="text;html=1;align=center;verticalAlign=middle;whiteSpace=wrap;rounded=0;fontSize=20;" vertex="1" parent="1">
          <mxGeometry x="385" y="420" width="80" height="67.5" as="geometry" />
        </mxCell>
        <mxCell id="lClvxiTIddJS243z8lhU-24" value="Reference" style="text;html=1;align=center;verticalAlign=middle;whiteSpace=wrap;rounded=0;fontSize=20;" vertex="1" parent="1">
          <mxGeometry x="395" y="487.5" width="80" height="67.5" as="geometry" />
        </mxCell>
        <mxCell id="lClvxiTIddJS243z8lhU-25" value="" style="rounded=0;whiteSpace=wrap;html=1;" vertex="1" parent="1">
          <mxGeometry x="160" y="73" width="210" height="150" as="geometry" />
        </mxCell>
        <mxCell id="lClvxiTIddJS243z8lhU-26" value="CTR" style="text;html=1;align=center;verticalAlign=middle;whiteSpace=wrap;rounded=0;fontSize=37;strokeColor=default;" vertex="1" parent="1">
          <mxGeometry x="258" y="125.5" width="90" height="45" as="geometry" />
        </mxCell>
        <mxCell id="lClvxiTIddJS243z8lhU-27" value="" style="rounded=0;whiteSpace=wrap;html=1;fillColor=#00FF00;rotation=90;" vertex="1" parent="1">
          <mxGeometry x="258" y="-20" width="10" height="196" as="geometry" />
        </mxCell>
        <mxCell id="lClvxiTIddJS243z8lhU-28" value="" style="rounded=0;whiteSpace=wrap;html=1;fillColor=#FF0000;rotation=0;" vertex="1" parent="1">
          <mxGeometry x="160" y="111" width="10" height="67" as="geometry" />
        </mxCell>
        <mxCell id="lClvxiTIddJS243z8lhU-29" value="Vdd/Gnd (analog and digital)" style="text;html=1;align=center;verticalAlign=middle;whiteSpace=wrap;rounded=0;fontSize=20;" vertex="1" parent="1">
          <mxGeometry x="170" y="100.5" width="80" height="122.5" as="geometry" />
        </mxCell>
        <mxCell id="lClvxiTIddJS243z8lhU-30" value="Signals" style="text;html=1;align=center;verticalAlign=middle;whiteSpace=wrap;rounded=0;fontSize=20;" vertex="1" parent="1">
          <mxGeometry x="258" y="83.25" width="80" height="24.75" as="geometry" />
        </mxCell>
        <mxCell id="lClvxiTIddJS243z8lhU-32" value="" style="rounded=0;whiteSpace=wrap;html=1;rotation=-90;" vertex="1" parent="1">
          <mxGeometry x="115" y="-440" width="420" height="330" as="geometry" />
        </mxCell>
        <mxCell id="lClvxiTIddJS243z8lhU-33" value="ADC" style="text;html=1;align=center;verticalAlign=middle;whiteSpace=wrap;rounded=0;fontSize=37;strokeColor=default;" vertex="1" parent="1">
          <mxGeometry x="280" y="-297.5" width="90" height="45" as="geometry" />
        </mxCell>
        <mxCell id="lClvxiTIddJS243z8lhU-35" value="" style="rounded=0;whiteSpace=wrap;html=1;fillColor=#FF0000;rotation=0;" vertex="1" parent="1">
          <mxGeometry x="160" y="-470" width="10" height="67" as="geometry" />
        </mxCell>
        <mxCell id="lClvxiTIddJS243z8lhU-36" value="" style="rounded=0;whiteSpace=wrap;html=1;fillColor=#FF0000;rotation=0;" vertex="1" parent="1">
          <mxGeometry x="480" y="-470" width="10" height="67" as="geometry" />
        </mxCell>
        <mxCell id="lClvxiTIddJS243z8lhU-37" value="" style="rounded=0;whiteSpace=wrap;html=1;fillColor=#00FF00;" vertex="1" parent="1">
          <mxGeometry x="160" y="-360" width="10" height="270" as="geometry" />
        </mxCell>
        <mxCell id="lClvxiTIddJS243z8lhU-38" value="" style="rounded=0;whiteSpace=wrap;html=1;fillColor=#00FF00;" vertex="1" parent="1">
          <mxGeometry x="480" y="-365" width="10" height="270" as="geometry" />
        </mxCell>
        <mxCell id="lClvxiTIddJS243z8lhU-39" value="Vdd/Gnd (analog and digital)" style="text;html=1;align=center;verticalAlign=middle;whiteSpace=wrap;rounded=0;fontSize=20;" vertex="1" parent="1">
          <mxGeometry x="190" y="-482.5" width="250" height="122.5" as="geometry" />
        </mxCell>
        <mxCell id="lClvxiTIddJS243z8lhU-41" value="Signals (analog and digital)" style="text;html=1;align=center;verticalAlign=middle;whiteSpace=wrap;rounded=0;fontSize=20;" vertex="1" parent="1">
          <mxGeometry x="178" y="-237.37" width="80" height="24.75" as="geometry" />
        </mxCell>
        <mxCell id="lClvxiTIddJS243z8lhU-42" value="Signals (digital)" style="text;html=1;align=center;verticalAlign=middle;whiteSpace=wrap;rounded=0;fontSize=20;" vertex="1" parent="1">
          <mxGeometry x="395" y="-237.37" width="80" height="24.75" as="geometry" />
        </mxCell>
      </root>
    </mxGraphModel>
  </diagram>
</mxfile>
